<?xml version="1.0" standalone="no"?>
<!DOCTYPE svg PUBLIC "-//W3C//DTD SVG 20010904//EN"
 "http://www.w3.org/TR/2001/REC-SVG-20010904/DTD/svg10.dtd">
<svg version="1.0" xmlns="http://www.w3.org/2000/svg"
 width="526.000000pt" height="148.000000pt" viewBox="0 0 526.000000 148.000000"
 preserveAspectRatio="xMidYMid meet">

<g transform="translate(0.000000,148.000000) scale(0.100000,-0.100000)"
fill="#000000" stroke="none">
<path d="M280 1372 c-71 -35 -70 -22 -70 -637 0 -346 4 -564 10 -587 6 -20 22
-46 37 -58 25 -20 36 -20 680 -20 l655 0 34 34 34 34 0 584 c0 560 -1 584 -20
615 -13 21 -31 35 -57 42 -25 7 -252 11 -653 11 -566 0 -618 -1 -650 -18z
m680 -197 c0 -4 -7 -19 -14 -34 -14 -27 -14 -28 8 -24 37 7 38 -10 5 -62 -21
-33 -34 -44 -41 -37 -7 7 -6 16 1 30 15 28 14 32 -9 32 -11 0 -20 5 -20 10 0
23 41 90 55 90 8 0 15 -2 15 -5z m-413 -157 c38 -37 42 -58 11 -58 -22 -1 -22
-2 7 -25 22 -18 27 -27 18 -36 -8 -8 -21 -3 -52 22 -46 36 -50 48 -21 56 25 7
25 15 0 38 -18 16 -19 35 -2 35 3 0 21 -14 39 -32z m833 18 c0 -7 -7 -19 -15
-26 -21 -17 -19 -27 8 -34 21 -6 20 -8 -22 -46 -24 -22 -47 -40 -52 -40 -18 0
-8 29 17 49 25 19 25 21 6 21 -38 0 -37 22 3 57 42 36 55 41 55 19z m-298
-106 c71 -22 148 -70 181 -113 64 -85 91 -188 68 -260 -16 -47 -85 -108 -157
-138 l-55 -24 6 -50 6 -51 -53 -13 c-51 -14 -52 -13 -67 10 -62 96 -148 151
-298 194 -48 13 -102 32 -120 41 -69 36 -82 132 -33 232 37 72 82 115 165 153
108 51 233 58 357 19z"/>
<path d="M905 918 c-11 -6 -30 -20 -42 -30 -26 -24 -48 -16 -33 12 10 19 9 19
-43 1 -139 -48 -227 -148 -227 -256 0 -49 32 -91 84 -108 l46 -16 0 24 c0 28
20 75 31 75 16 0 18 -18 7 -48 -15 -40 -11 -45 85 -87 94 -40 166 -92 200
-144 23 -35 29 -39 54 -32 29 8 31 17 18 78 -4 17 2 26 24 38 l29 15 -22 42
c-27 52 -57 61 -74 23 -13 -28 -32 -25 -32 4 0 39 62 65 99 42 8 -5 22 -24 30
-42 26 -52 43 -57 90 -25 63 44 85 86 78 151 -10 93 -65 176 -151 225 -28 17
-54 30 -58 30 -4 0 -14 -15 -23 -34 -17 -35 -39 -51 -56 -40 -5 3 2 19 16 36
37 43 32 56 -22 63 -27 3 -57 8 -68 10 -11 2 -29 -1 -40 -7z m21 -71 c-6 -27
17 -67 40 -67 8 0 14 -7 14 -15 0 -26 -37 -17 -64 16 -27 31 -31 46 -20 73 10
26 37 20 30 -7z m-176 -27 c0 -5 -13 -16 -30 -25 -16 -8 -33 -27 -36 -40 -7
-27 -34 -35 -34 -9 0 26 20 54 52 74 31 18 48 18 48 0z m446 -32 c4 -7 2 -14
-6 -16 -8 -3 -24 -16 -37 -28 -19 -19 -23 -31 -18 -57 5 -24 1 -39 -13 -57
-24 -30 -49 -19 -28 12 9 12 13 32 9 48 -6 34 20 88 50 100 30 12 35 12 43 -2z
m-399 -90 c27 -29 35 -60 27 -92 -10 -42 -33 -32 -31 13 1 25 -5 47 -16 59
-18 20 -23 42 -9 42 5 0 18 -10 29 -22z m467 -44 c9 -33 -11 -94 -30 -94 -17
0 -17 10 -4 44 6 17 6 35 0 52 -6 14 -7 30 -4 35 9 15 31 -7 38 -37z m-644 12
c0 -14 9 -31 21 -40 24 -16 17 -38 -9 -29 -26 9 -42 34 -42 65 0 18 5 28 15
28 9 0 15 -9 15 -24z m343 1 c44 -19 64 -44 48 -60 -10 -9 -15 -9 -24 4 -17
22 -51 39 -81 39 -25 0 -33 10 -19 23 10 11 41 8 76 -6z m-23 -114 c0 -9 -7
-25 -17 -35 -20 -22 -73 -25 -73 -3 0 9 9 15 25 15 14 0 29 8 35 20 13 24 30
26 30 3z"/>
<path d="M2006 1158 c-6 -18 -56 -471 -53 -475 2 -1 18 -4 37 -5 l34 -3 16
110 c8 61 20 110 25 110 6 0 22 -47 37 -103 15 -57 28 -105 30 -107 2 -2 16
-5 33 -7 l29 -3 28 109 c39 154 42 155 61 5 l13 -104 41 -3 40 -3 -13 76 c-7
42 -20 142 -29 223 -22 204 -19 194 -62 190 l-37 -3 -22 -105 c-31 -138 -38
-163 -50 -167 -11 -4 -34 64 -63 192 l-18 80 -37 3 c-23 2 -38 -1 -40 -10z"/>
<path d="M2450 1167 c0 -2 28 -62 61 -133 l62 -129 5 -117 5 -118 32 0 33 0 4
118 c5 115 6 119 55 228 73 159 72 154 28 154 -36 0 -37 -1 -79 -92 l-43 -93
-20 40 c-11 22 -28 64 -38 93 -19 52 -19 52 -62 52 -24 0 -43 -2 -43 -3z"/>
<path d="M2850 919 l0 -250 38 3 37 3 5 115 5 115 25 -40 c14 -22 46 -75 70
-117 42 -75 45 -78 80 -78 20 0 39 3 43 6 3 3 -4 23 -17 43 -47 74 -116 209
-116 224 0 13 39 86 117 220 3 5 -16 7 -42 5 l-47 -3 -50 -90 c-27 -49 -53
-94 -59 -99 -5 -6 -9 28 -9 92 l0 102 -40 0 -40 0 0 -251z"/>
<path d="M3818 988 c-3 -101 -3 -211 0 -245 l4 -63 40 0 39 0 -2 105 c-1 58 2
106 7 107 5 1 36 -47 69 -105 l60 -107 43 0 c23 0 42 2 42 5 0 3 -29 58 -65
123 -36 64 -65 126 -65 137 0 11 25 63 55 115 30 52 55 99 55 103 0 5 -19 7
-42 5 l-43 -3 -52 -95 c-29 -52 -57 -96 -62 -98 -7 -2 -8 32 -4 97 l6 101 -40
0 -40 0 -5 -182z"/>
<path d="M4268 1154 c-37 -20 -58 -63 -58 -120 0 -46 3 -50 75 -122 64 -63 75
-79 75 -107 0 -57 -67 -85 -118 -49 -21 14 -23 14 -33 -13 -14 -36 -1 -55 42
-65 82 -18 172 29 185 97 10 56 -13 103 -87 176 -55 53 -69 73 -69 97 0 41 21
56 70 49 36 -5 41 -3 46 19 11 42 -1 54 -53 54 -26 -1 -60 -7 -75 -16z"/>
<path d="M4518 1163 c-2 -5 -3 -114 -3 -243 l0 -235 37 -3 37 -3 3 103 3 103
58 3 57 3 0 -106 0 -105 40 0 40 0 0 245 0 245 -40 0 -40 0 0 -105 0 -105 -44
0 c-76 0 -76 0 -76 111 l0 99 -34 0 c-19 0 -36 -3 -38 -7z"/>
<path d="M4922 936 c-29 -129 -52 -239 -52 -246 0 -7 14 -10 37 -8 33 3 39 7
43 33 5 29 7 30 60 30 53 0 55 -1 65 -32 8 -29 13 -33 43 -33 41 0 43 -22 -21
280 l-43 205 -40 3 -40 3 -52 -235z m108 -23 c6 -32 13 -64 15 -70 3 -9 -7
-13 -30 -13 -20 0 -35 5 -35 12 0 27 25 128 31 128 4 0 13 -26 19 -57z"/>
<path d="M3363 921 c-68 -131 -123 -242 -123 -245 0 -3 110 -6 245 -6 135 0
245 2 245 5 0 7 -239 485 -243 485 -1 0 -57 -108 -124 -239z m202 19 l75 -150
-105 0 -105 0 12 25 c9 20 19 25 64 27 l53 3 -35 64 -36 63 -54 -98 c-29 -55
-54 -102 -54 -106 0 -5 60 -8 134 -8 132 0 134 0 150 -25 l16 -25 -190 0
c-104 0 -190 2 -190 5 0 7 184 375 187 375 2 0 37 -67 78 -150z"/>
<path d="M1950 400 l0 -120 65 0 c58 0 65 2 65 20 0 17 -7 20 -45 20 l-45 0 0
100 c0 93 -1 100 -20 100 -19 0 -20 -7 -20 -120z"/>
<path d="M2120 400 l0 -121 68 3 c52 2 67 6 67 18 0 11 -13 16 -47 18 -47 3
-48 4 -48 38 0 32 2 34 35 34 24 0 35 5 35 15 0 10 -11 15 -35 15 -33 0 -35 2
-35 35 0 35 0 35 45 35 33 0 45 4 45 15 0 12 -14 15 -65 15 l-65 0 0 -120z"/>
<path d="M2355 507 c-3 -7 -21 -61 -39 -120 -33 -106 -34 -108 -13 -105 14 2
23 11 25 26 3 19 9 22 52 22 43 0 49 -3 52 -22 2 -15 11 -24 26 -26 19 -3 23
0 19 15 -3 10 -20 64 -38 121 -29 92 -34 102 -56 102 -13 0 -26 -6 -28 -13z
m44 -81 c15 -59 16 -56 -20 -56 -28 0 -31 3 -25 23 4 12 9 34 12 50 9 39 20
33 33 -17z"/>
<path d="M2520 400 c0 -113 1 -120 20 -120 19 0 20 7 20 105 0 103 0 105 23
105 48 0 62 -45 25 -82 l-21 -21 28 -54 c23 -41 35 -53 53 -53 l24 0 -30 51
c-29 50 -29 52 -11 70 11 11 19 33 19 53 0 47 -29 66 -97 66 l-53 0 0 -120z"/>
<path d="M2730 400 c0 -100 3 -120 15 -120 12 0 15 16 15 81 0 46 4 78 9 75 5
-4 29 -40 53 -81 27 -48 49 -75 61 -75 15 0 17 12 17 120 0 100 -2 120 -15
120 -12 0 -15 -15 -15 -75 0 -41 -4 -75 -9 -75 -5 0 -29 34 -53 75 -27 48 -49
75 -60 75 -16 0 -18 -12 -18 -120z"/>
<path d="M3020 505 c0 -10 10 -15 30 -15 l30 0 0 -105 c0 -98 1 -105 20 -105
19 0 20 7 20 105 l0 105 30 0 c20 0 30 5 30 15 0 12 -16 15 -80 15 -64 0 -80
-3 -80 -15z"/>
<path d="M3254 497 c-32 -28 -44 -108 -24 -157 26 -63 112 -80 161 -31 26 26
29 36 29 89 0 50 -4 66 -26 91 -22 26 -33 31 -69 31 -31 0 -52 -7 -71 -23z
m100 -20 c23 -17 32 -88 16 -127 -16 -40 -54 -50 -82 -23 -15 16 -20 33 -20
73 1 76 39 111 86 77z"/>
<path d="M3480 401 l0 -121 45 0 c55 0 110 21 124 48 6 12 11 45 11 76 0 43
-5 61 -24 82 -20 24 -32 28 -90 32 l-66 4 0 -121z m119 63 c45 -57 11 -154
-54 -154 -25 0 -25 0 -25 90 l0 90 29 0 c20 0 36 -9 50 -26z"/>
<path d="M3736 410 c-42 -128 -42 -130 -17 -130 13 0 21 8 23 23 3 19 10 22
49 25 43 3 47 1 53 -23 4 -16 13 -25 26 -25 11 0 20 3 20 7 0 4 -16 58 -35
120 -33 103 -38 113 -60 113 -22 0 -27 -10 -59 -110z m79 -2 c7 -37 7 -38 -24
-38 -17 0 -31 2 -31 4 0 1 5 18 11 37 6 19 13 41 16 49 4 13 5 13 13 0 4 -8
11 -32 15 -52z"/>
<path d="M3920 517 c0 -3 16 -38 35 -78 23 -49 35 -88 35 -116 0 -36 3 -43 20
-43 17 0 20 7 20 45 0 32 10 66 35 115 19 38 35 72 35 75 0 4 -10 5 -21 3 -15
-2 -28 -18 -43 -55 -11 -29 -23 -53 -26 -53 -3 0 -15 24 -26 53 -15 37 -28 53
-43 55 -11 2 -21 1 -21 -1z"/>
</g>
</svg>
